<svg xmlns="http://www.w3.org/2000/svg" width="30" height="30" fill="currentcolor" viewBox="0 0 24 24">
  <path d="M12 .5C5.73.5.5 5.73.5 12.02c0 5.1 3.29 
           9.42 7.86 10.95.57.1.78-.25.78-.55 
           0-.27-.01-1.14-.02-2.06-3.2.7-3.87-1.54-3.87-1.54-.52-1.32-1.27-1.67-1.27-1.67-1.04-.7.08-.69.08-.69 
           1.15.08 1.75 1.18 1.75 1.18 1.02 1.75 
           2.68 1.24 3.33.95.1-.74.4-1.24.73-1.53-2.56-.29-5.25-1.28-5.25-5.7 
           0-1.26.45-2.3 1.18-3.11-.12-.29-.51-1.46.11-3.05 
           0 0 .96-.31 3.15 1.18a10.9 10.9 0 012.87-.39c.97.01 1.95.13 
           2.87.39 2.18-1.49 3.14-1.18 
           3.14-1.18.62 1.59.24 2.76.12 3.05.74.81 
           1.18 1.85 1.18 3.11 0 4.43-2.7 
           5.41-5.27 5.69.42.36.79 1.08.79 2.18 0 
           1.58-.02 2.86-.02 3.25 0 .3.21.66.79.55A10.53 
           10.53 0 0023.5 12C23.5 5.73 18.27.5 12 .5z"/>
</svg>
